<?xml version="1.0" encoding="UTF-8"?>
<svg id="_圖層_1" data-name="圖層 1" xmlns="http://www.w3.org/2000/svg" viewBox="0 0 500 500">
  <defs>
    <style>
      .cls-1 {
        font-size: 48px;
      }

      .cls-1, .cls-2, .cls-3 {
        fill: #d8b96f;
      }

      .cls-1, .cls-3 {
        font-family: Pattaya-Regular, Pattaya;
      }

      .cls-4 {
        fill: #fbfaf5;
      }

      .cls-4, .cls-5, .cls-6, .cls-7, .cls-8, .cls-9, .cls-10, .cls-2, .cls-11, .cls-12, .cls-13 {
        stroke-width: 0px;
      }

      .cls-5 {
        fill: #dcc381;
      }

      .cls-6 {
        fill: #d8ba6f;
      }

      .cls-7 {
        fill: #fdfdfc;
      }

      .cls-8 {
        fill: #ddc382;
      }

      .cls-9 {
        fill: #fefefe;
      }

      .cls-10 {
        fill: #f9f6ee;
      }

      .cls-11 {
        fill: #d7b86c;
      }

      .cls-12 {
        fill: #d8b96e;
      }

      .cls-3 {
        font-size: 15px;
        letter-spacing: .2em;
      }

      .cls-13 {
        fill: #d7b96d;
      }
    </style>
  </defs>
  <g>
    <path class="cls-9" d="M500,500H0V0h500v500ZM278.44,324.36c-1.21-.71-2.6-1.23-3.61-2.16-5.97-5.51-11.83-11.14-17.77-16.69-4.6-4.3-9.97-4.64-14.66-.42-6.66,5.98-13.03,12.29-19.53,18.45-1.13,1.07-2.31,2.09-3.47,3.13-.28-.21-.57-.42-.85-.63.31-.95.61-1.9,1.02-3.14-4.62-7.7-9.35-15.57-14.43-24.03-4.64,7.65-8.87,14.64-13.14,21.67-7.42-5.66-13.67-12.57-14.72-16.18,2.37-.13,4.72-.26,7.07-.38.07-.32.15-.63.22-.95-2.23-1.87-4.45-3.74-6.33-5.32-14.93,0-29.38,0-43.82.01-.1,0-.23.19-.3.32-.08.14-.11.31-.16.47,1.78,1.93,3.56,3.85,5.36,5.8h28.95c20.47,27.87,47.46,43.15,82.06,42.84,34.5-.31,61.27-16.02,81.15-43.72h28.52c1.76-1.63,3.59-3.33,6.21-5.76h-45.49c-2.08,1.96-4.08,3.83-6.65,6.24,3.14.19,5.52.34,8.47.52-4.2,6.6-9.98,11.01-15.32,16.57-1.21-1.65-2.14-2.75-2.88-3.97-2.65-4.38-5.21-8.82-7.87-13.2-.81-1.32-1.84-2.5-3.26-4.39-1.85,2.95-3.29,5.12-4.6,7.36-3.41,5.83-6.77,11.69-10.15,17.54h0ZM337.35,226.52c-3.13,0-5.79-.19-8.4.05-3.63.32-6.27-1.05-8.82-3.57-6.61-6.53-13.62-12.66-20.15-19.28-3.51-3.55-9.68-4.01-12.79-1.8-2.24,1.6-4.09,3.74-6.81,6.29,2.05,1.51,3.6,2.65,5.37,3.95,1.66-1.43,3.52-3.03,4.9-4.22,3.19-1.03,4.6.8,6.16,2.28,6.75,6.4,13.53,12.76,20.2,19.23,2.03,1.97,4.21,2.93,7.09,2.9,12.3-.11,24.61-.03,36.91-.07,1.02,0,2.05-.34,4.06-.69-2.22-2.12-3.76-3.59-5.42-5.18h-14.44c-15.46-46.21-46.18-72.43-95.55-74.67-49.63,2.05-80.39,28.45-95.94,74.73h-14.46c-1.66,1.76-3.17,3.36-5.31,5.64,2.41.15,3.68.3,4.96.3,11.64.02,23.28-.11,34.92.09,3.65.06,6.25-1.17,8.79-3.66,6.63-6.51,13.49-12.8,20.22-19.21,1.51-1.44,3-2.67,5.58-1.68,6.07,5.66,13.03,10.87,19.07,18.57h-13.81c1.85-2.34,2.93-3.7,4.4-5.57-1.7-1.39-3.22-2.62-4.59-3.74-6,4.43-13.06,11.75-14.49,14.93h44.1c-2.14-3.18-4.83-5.49-7.41-7.92-7.01-6.6-13.96-13.27-20.97-19.87-5.66-5.34-10.59-5.33-16.11-.1-6.74,6.4-13.48,12.8-20.28,19.15-1.19,1.11-2.56,2.61-4,2.79-4.18.53-8.45.79-12.66-.18,6.25-32.8,40.75-68.91,89.17-68.18,48.12.73,80.91,37.18,86.51,68.68ZM301.06,232.04c-1.92-2.04-2.98-3.29-4.17-4.41-3.87-3.62-7.84-7.15-11.68-10.79-8.91-8.45-17.82-16.9-26.62-25.46-3.41-3.32-7.11-5.39-13.31-4.2-6.73,6.25-14.3,13.28-22.06,20.48,1.86,1.73,3.17,2.94,4.77,4.42,7.38-6.23,13.67-13.29,21.5-18.91,13.03,9.74,23.32,21.81,35.97,32.86-5.14.66-9.05.78-13.53-.05,1.4-1.88,2.43-3.27,3.59-4.83-1.63-1.45-3.05-2.72-4.76-4.24-4.69,5.42-10.5,8.95-14.97,15.12h45.27ZM144.97,285.28c.01-.18.03-.35.04-.53h-32.63c0,.18,0,.35,0,.53h32.58ZM354.22,284.7c-.14.16-.28.33-.42.49h32.94c0-.16,0-.33,0-.49h-32.53Z"/>
    <path class="cls-2" d="M337.35,226.52c-5.61-31.51-38.39-67.96-86.51-68.68-48.43-.73-82.92,35.38-89.17,68.18,4.21.97,8.48.71,12.66.18,1.43-.18,2.8-1.68,4-2.79,6.79-6.35,13.54-12.75,20.28-19.15,5.51-5.23,10.44-5.24,16.11.1,7.01,6.6,13.96,13.27,20.97,19.87,2.58,2.43,5.27,4.75,7.41,7.92h-44.1c1.43-3.18,8.49-10.5,14.49-14.93,1.37,1.12,2.88,2.35,4.59,3.74-1.47,1.86-2.55,3.23-4.4,5.57h13.81c-6.03-7.69-12.99-12.91-19.07-18.57-2.58-.99-4.06.23-5.58,1.68-6.73,6.42-13.59,12.7-20.22,19.21-2.53,2.49-5.14,3.72-8.79,3.66-11.64-.2-23.28-.07-34.92-.09-1.28,0-2.55-.15-4.96-.3,2.15-2.28,3.66-3.88,5.31-5.64h14.46c15.56-46.28,46.31-72.68,95.94-74.73,49.37,2.23,80.09,28.46,95.55,74.67h14.44c1.67,1.59,3.2,3.06,5.42,5.18-2.01.35-3.03.69-4.06.69-12.3.04-24.61-.03-36.91.07-2.88.02-5.05-.93-7.09-2.9-6.68-6.47-13.46-12.83-20.2-19.23-1.56-1.48-2.97-3.31-6.16-2.28-1.38,1.19-3.23,2.79-4.9,4.22-1.77-1.3-3.32-2.44-5.37-3.95,2.72-2.56,4.57-4.7,6.81-6.29,3.1-2.21,9.28-1.75,12.79,1.8,6.52,6.61,13.53,12.75,20.15,19.28,2.55,2.52,5.19,3.89,8.82,3.57,2.62-.23,5.28-.05,8.4-.05Z"/>
    <path class="cls-11" d="M278.45,324.35c3.38-5.85,6.73-11.71,10.15-17.54,1.31-2.24,2.75-4.4,4.6-7.36,1.41,1.89,2.45,3.07,3.26,4.39,2.66,4.38,5.22,8.82,7.87,13.2.74,1.22,1.68,2.32,2.88,3.97,5.34-5.56,11.12-9.97,15.32-16.57-2.96-.18-5.33-.33-8.47-.52,2.57-2.41,4.56-4.29,6.65-6.24h45.49c-2.62,2.43-4.45,4.12-6.21,5.76h-28.52c-19.88,27.7-46.65,43.41-81.15,43.72-34.59.31-61.59-14.97-82.06-42.84h-28.95c-1.8-1.95-3.58-3.88-5.36-5.81.05-.16.08-.33.16-.47.07-.13.2-.32.3-.32,14.44-.01,28.89-.01,43.82-.01,1.88,1.58,4.11,3.45,6.33,5.32-.07.32-.15.63-.22.95-2.35.13-4.7.25-7.07.38,1.05,3.6,7.3,10.52,14.72,16.18,4.26-7.03,8.5-14.02,13.14-21.67,5.07,8.45,9.8,16.33,14.43,24.03-.4,1.25-.71,2.19-1.02,3.14.28.21.57.42.85.63,1.16-1.04,2.34-2.06,3.47-3.13,6.5-6.16,12.87-12.47,19.53-18.45,4.7-4.22,10.06-3.88,14.66.42,5.93,5.55,11.8,11.18,17.77,16.69,1.01.93,2.4,1.45,3.61,2.16-.22,1.45.37,1.91,2,1.68-.29-.69-.34-1.23-.63-1.42-.36-.24-.9-.19-1.36-.27ZM229.76,326.91v12.12c13.16,2.64,26.1,3.15,39.29-.31v-12.48c-5.8-5.59-11.85-11.43-17.61-16.98-2.06.13-3.36.2-4.78.29-5.57,5.72-11.11,11.41-16.9,17.35ZM293.34,307.77c-2.61,4.34-4.81,7.98-7,11.61.81.73,1.38,1.25,1.93,1.76-.27.95-.52,1.84-.75,2.66.69.51,1.2.88,1.79,1.31-1.26,2.64-2.48,5.22-3.71,7.79.2.19.4.38.61.57,3.63-1.82,7.26-3.64,10.57-5.3.83-1.85,1.5-3.37,2.33-5.22-.11-.33-.36-1.09-.61-1.83.61-.57,1.18-1.1,1.92-1.8-2.24-3.65-4.46-7.25-7.1-11.54ZM209.49,325.17c.67-.48,1.19-.85,1.71-1.22-.4-1.12-.8-2.25-1.18-3.33.96-.27,1.58-.45,2.32-.66-2.34-3.94-4.59-7.74-7.2-12.14-2.48,4.24-4.61,7.88-6.78,11.58.77.56,1.27.94,1.84,1.36-.38,1.04-.77,2.09-1.03,2.8,2.54,6.07,8.31,6.89,13.87,10.08-1.44-3.46-2.38-5.72-3.53-8.46ZM222.12,337.6c.39-.2.78-.41,1.17-.61v-4.62c-1.7.1-3.13.19-4.56.27-.14.35-.28.7-.42,1.05,1.27,1.3,2.54,2.61,3.81,3.91ZM280.46,332.67h-4.69v4.34c.29.15.59.3.88.45,1.07-1.35,2.14-2.69,3.8-4.78Z"/>
    <path class="cls-12" d="M301.06,232.04h-45.27c4.47-6.17,10.28-9.7,14.97-15.12,1.71,1.52,3.13,2.79,4.76,4.24-1.16,1.57-2.19,2.95-3.59,4.83,4.48.83,8.38.71,13.53.05-12.66-11.06-22.95-23.12-35.97-32.86-7.83,5.62-14.12,12.67-21.5,18.91-1.6-1.48-2.9-2.69-4.77-4.42,7.76-7.21,15.33-14.23,22.06-20.48,6.2-1.19,9.9.88,13.31,4.2,8.8,8.56,17.72,17.01,26.62,25.46,3.85,3.65,7.81,7.17,11.68,10.79,1.19,1.11,2.25,2.37,4.17,4.41Z"/>
    <path class="cls-8" d="M144.97,285.28h-32.58c0-.18,0-.35,0-.53h32.63c-.01.18-.03.35-.04.53Z"/>
    <path class="cls-5" d="M354.22,284.7h32.53c0,.16,0,.33,0,.49h-32.94c.14-.16.28-.33.42-.49Z"/>
    <path class="cls-7" d="M229.76,326.91c5.78-5.94,11.33-11.64,16.9-17.35,1.43-.09,2.73-.17,4.78-.29,5.76,5.56,11.81,11.39,17.61,16.98v12.48c-13.19,3.46-26.13,2.95-39.29.31v-12.12ZM250.84,327.63v7.66c1.79-.1,3.21-.18,5.01-.29v-7.37h-5.01ZM243.81,327.65v7.63c1.72-.12,3.09-.22,4.48-.31v-7.32h-4.48ZM243.72,321.43v4.59h4.49v-7.64c-1.79,1.21-3.1,2.11-4.49,3.05ZM255.24,326.11c.22-5.35-.12-5.83-4.46-6.81v6.81h4.46Z"/>
    <path class="cls-7" d="M293.34,307.77c2.64,4.29,4.86,7.89,7.1,11.54-.74.69-1.31,1.22-1.92,1.8.24.74.5,1.51.61,1.83-.83,1.86-1.51,3.37-2.33,5.22-3.31,1.66-6.94,3.48-10.57,5.3-.2-.19-.4-.38-.61-.57,1.23-2.58,2.45-5.15,3.71-7.79-.59-.43-1.1-.8-1.79-1.31.23-.81.48-1.7.75-2.66-.55-.5-1.13-1.02-1.93-1.76,2.19-3.63,4.38-7.27,7-11.61Z"/>
    <path class="cls-7" d="M209.49,325.17c1.15,2.75,2.09,5.01,3.53,8.46-5.55-3.2-11.33-4.02-13.87-10.08.26-.7.65-1.76,1.03-2.8-.57-.42-1.07-.79-1.84-1.36,2.17-3.71,4.3-7.35,6.78-11.58,2.61,4.4,4.87,8.2,7.2,12.14-.74.21-1.36.39-2.32.66.38,1.08.78,2.21,1.18,3.33-.52.37-1.04.75-1.71,1.23Z"/>
    <path class="cls-4" d="M222.12,337.6c-1.27-1.3-2.54-2.61-3.81-3.91.14-.35.28-.7.42-1.05,1.43-.09,2.86-.17,4.56-.27v4.62c-.39.2-.78.41-1.17.61Z"/>
    <path class="cls-10" d="M280.46,332.67c-1.66,2.09-2.73,3.43-3.8,4.78-.29-.15-.59-.3-.88-.45v-4.34h4.69Z"/>
    <path class="cls-9" d="M278.45,324.35c.46.08,1.01.03,1.36.27.29.19.34.72.63,1.42-1.63.23-2.22-.23-2-1.68,0,0,0,0,0,0Z"/>
    <path class="cls-13" d="M250.84,327.63h5.01v7.37c-1.8.1-3.22.18-5.01.29v-7.66Z"/>
    <path class="cls-12" d="M243.81,327.65h4.48v7.32c-1.39.1-2.76.19-4.48.31v-7.63Z"/>
    <path class="cls-6" d="M243.72,321.43c1.39-.94,2.7-1.83,4.49-3.05v7.64h-4.49v-4.59Z"/>
    <path class="cls-13" d="M255.24,326.11h-4.46v-6.81c4.33.98,4.68,1.46,4.46,6.81Z"/>
  </g>
  <text class="cls-1" transform="translate(107.22 270.82)"><tspan x="0" y="0">Bruce`s Garage</tspan></text>
  <text class="cls-3" transform="translate(203.39 293.71)"><tspan x="0" y="0">Since 1995</tspan></text>
</svg>